<?xml version="1.0" encoding="UTF-8"?>
<svg width="32" height="32" viewBox="0 0 32 32" fill="none" xmlns="http://www.w3.org/2000/svg">
  <path d="M16 2C8.268 2 2 8.268 2 16C2 23.732 8.268 30 16 30C23.732 30 30 23.732 30 16C30 8.268 23.732 2 16 2Z" fill="#86D420"/>
  <path d="M23 12.5C23 13.8807 21.8807 15 20.5 15C19.1193 15 18 13.8807 18 12.5C18 11.1193 19.1193 10 20.5 10C21.8807 10 23 11.1193 23 12.5Z" fill="white"/>
  <path d="M14 12.5C14 13.8807 12.8807 15 11.5 15C10.1193 15 9 13.8807 9 12.5C9 11.1193 10.1193 10 11.5 10C12.8807 10 14 11.1193 14 12.5Z" fill="white"/>
  <path d="M16 25C19.5 25 22.5 22.5 23 19H9C9.5 22.5 12.5 25 16 25Z" fill="white"/>
</svg> 